<svg width="115" height="28" viewBox="0 0 115 28" fill="none" xmlns="http://www.w3.org/2000/svg">
<mask id="mask0" mask-type="alpha" maskUnits="userSpaceOnUse" x="0" y="4" width="32" height="24">
<path fill-rule="evenodd" clip-rule="evenodd" d="M31.2344 4.89282L31.2344 27.5019L0.998875 27.5019L0.998876 4.89282L31.2344 4.89282Z" fill="white"/>
</mask>
<g mask="url(#mask0)">
<path fill-rule="evenodd" clip-rule="evenodd" d="M17.2576 4.89282C2.33038 4.90338 2.20572 14.4874 2.22799 14.4914L12.8129 14.4914C12.8078 14.4984 12.5176 11.7174 16.6732 11.7159C19.5561 11.7595 20.1755 12.9342 20.1822 13.9717C20.1755 15.2359 19.6002 15.7217 14.5099 16.3424C5.06189 17.4226 1.22325 19.2151 1.00056 24.0885C0.926518 26.6457 3.32548 27.5009 3.33914 27.5019L14.1584 27.5019C14.1716 27.5009 12.8225 26.4218 12.9304 25.2466C13.014 23.8517 14.0612 23.0796 15.4447 22.703C17.4996 22.0782 20.1755 21.1219 20.1822 21.1409L20.1822 27.5019L31.2344 27.5019L31.2344 12.7569C31.2344 6.5862 23.5229 4.90985 17.2576 4.89282" fill="#1B1B1B"/>
</g>
<mask id="mask1" mask-type="alpha" maskUnits="userSpaceOnUse" x="36" y="4" width="20" height="24">
<path fill-rule="evenodd" clip-rule="evenodd" d="M55.7734 4.92041L55.7734 27.5009L36.2781 27.5009L36.2781 4.92041L55.7734 4.92041Z" fill="white"/>
</mask>
<g mask="url(#mask1)">
<path fill-rule="evenodd" clip-rule="evenodd" d="M51.7438 5.01078C48.0201 5.5453 46.7126 8.56352 46.7075 8.55599L46.7075 5.41743L36.2781 5.41743L36.2781 27.501L47.6553 27.501L47.6553 16.9231C47.6686 15.0551 48.2022 14.2173 48.8995 13.5531C49.6852 12.7614 51.0629 12.2074 52.574 12.217L55.7734 12.217L55.7734 5.41743C55.7708 5.40784 54.1304 4.66857 51.7438 5.01078" fill="#1B1B1B"/>
</g>
<mask id="mask2" mask-type="alpha" maskUnits="userSpaceOnUse" x="58" y="0" width="24" height="28">
<path fill-rule="evenodd" clip-rule="evenodd" d="M81.2305 0L81.2305 27.5005L58.3998 27.5005L58.3998 -9.97958e-07L81.2305 0Z" fill="white"/>
</mask>
<g mask="url(#mask2)">
<path fill-rule="evenodd" clip-rule="evenodd" d="M74.4345 -2.97061e-07L63.1095 -7.92092e-07L63.1095 5.26579L58.3998 5.26579L58.3998 12.1119L63.1095 12.1119L63.1095 21.1813C63.1188 23.1371 63.0765 24.733 64.5393 26.2692C65.8184 27.5541 67.4948 27.4934 69.4874 27.5005L74.4345 27.5005L74.4345 12.1119L81.2305 12.1119L81.2305 5.26579L74.4345 5.26579L74.4345 -2.97061e-07Z" fill="#1B1B1B"/>
</g>
<path fill-rule="evenodd" clip-rule="evenodd" d="M103.736 16.331L94.1806 16.331C94.1781 16.3118 93.6076 11.7426 98.8114 11.769C104.209 11.7755 103.724 16.3118 103.736 16.331M98.8114 4.8663C98.2162 4.85367 83.0266 4.61312 82.9043 18.5553C82.8416 24.5389 86.2528 27.5629 86.227 27.5639L94.4776 27.5639L94.4776 21.9476L114.658 21.9476C114.667 21.9249 117.726 5.0715 98.8114 4.8663" fill="#1B1B1B"/>
</svg>
