<svg width="155" height="185" viewBox="0 0 155 185" fill="none" xmlns="http://www.w3.org/2000/svg">
<path d="M75.6998 11.4204L58.9998 1.90039L44.7798 9.84039L61.6798 19.6804L75.6998 11.4204Z" fill="white"/>
<path d="M112.81 85.3699L123.32 90.9499L152.82 74.3999V56.3799L112.81 80.2899V85.3699Z" fill="white"/>
<path d="M74.6899 138.97V155.5L78.5599 153.19V136.62L74.6899 138.97Z" fill="white"/>
<path d="M122.27 54.9498L122.26 56.3798L112.81 61.7798V78.3598L152 54.9398L112.81 32.5898V49.4398L122.27 54.9498Z" fill="white"/>
<path d="M112.81 103.4L122.25 108.54L122.28 109.97L112.81 115.74V132.71L152.01 109.28L122.93 92.6202L112.81 87.2402V103.4Z" fill="white"/>
<path d="M43.9302 11.2598V30.1398L60.0502 20.6398L43.9302 11.2598Z" fill="white"/>
<path d="M43.9302 99.9697V173.51L57.4302 182.07V108.02L43.9302 99.9697Z" fill="white"/>
<path d="M80.21 172.02V174.23L96.23 182.24V162.9L80.21 172.02Z" fill="white"/>
<path d="M1.66016 57.9404V174.27L14.9302 182.13L15.3202 82.4304L16.1502 82.4404L16.5702 81.7304L42.2802 97.0504V81.1104L1.66016 57.9404Z" fill="white"/>
<path d="M42.28 62.24L32.74 56.93L32.64 56.87H32.63L32.62 55.43L42.28 49.76V33.04L2.47998 56.5L42.28 79.2V62.24Z" fill="white"/>
<path d="M110.28 9.86039L95.12 1.90039L79 11.4004L93.53 19.6904L110.28 9.86039Z" fill="white"/>
<path d="M80.5 78.35L96.23 69.35V59.61L80.5 50.71V78.35Z" fill="white"/>
<path d="M57.4302 40.8696V37.1796L58.6702 36.4596L61.8702 38.2696L76.0402 29.9496L61.6902 21.5996L43.9302 32.0696V48.7896L57.4302 40.8696Z" fill="white"/>
<path d="M51.0698 65.2402L57.4298 68.7802V61.4902L51.0698 65.2402Z" fill="white"/>
<path d="M80.2099 133.67L96.2299 123.91V114.07L74.6899 102.85V116.38L80.2099 119.67V133.67Z" fill="white"/>
<path d="M77.6798 28.9901L91.8798 20.6501L77.3498 12.3701L63.3198 20.6401L77.6798 28.9901Z" fill="white"/>
<path d="M78.8399 86.7505L74.6899 84.4805V97.6905L78.8399 100.06V86.7505Z" fill="white"/>
<path d="M43.9302 63.1602V80.1502L57.4302 87.8502V70.6702L43.9302 63.1602Z" fill="white"/>
<path d="M96.23 94.3498V71.2598L80.5 80.2498V85.7698L96.23 94.3498Z" fill="white"/>
<path d="M57.4302 89.7498L43.9302 82.0498V98.0398L57.4302 106.09V89.7498Z" fill="white"/>
<path d="M80.5 48.8097L96.23 57.7097V41.7097L93.6 40.1797L80.5 47.8997V48.8097Z" fill="white"/>
<path d="M80.4999 87.6504V101.48L79.2599 102.2L74.6899 99.6004V100.98L96.2299 112.2V96.2304L80.4999 87.6504Z" fill="white"/>
<path d="M80.21 135.61V152.2L96.23 142.63V125.85L80.21 135.61Z" fill="white"/>
<path d="M96.2302 38.6299L95.2402 39.2099L96.2302 39.7899V38.6299Z" fill="white"/>
<path d="M74.6899 80.2803V81.6603L75.9199 80.9603L74.6899 80.2803Z" fill="white"/>
<path d="M75.5601 83.0804L78.8401 84.8604V82.5804L77.6101 81.9004L75.5601 83.0804Z" fill="white"/>
<path d="M43.0998 62.7002L42.2798 62.2402V79.2002L43.0998 79.6702V62.7002Z" fill="white"/>
<path d="M42.2798 81.1104V97.0504L43.0998 97.5504V81.5804L42.2798 81.1104Z" fill="white"/>
<path d="M43.0998 49.2798V32.5498L42.2798 33.0398V49.7598L43.0998 49.2798Z" fill="white"/>
<path d="M93.5299 19.6904L78.9999 11.4004L78.1699 11.8804L92.7099 20.1704L93.5299 19.6904Z" fill="white"/>
<path d="M43.1001 81.5801V97.5501L43.9301 98.0401V82.0501L43.1001 81.5801Z" fill="white"/>
<path d="M43.9301 48.7903V32.0703L43.1001 32.5503V49.2803L43.9301 48.7903Z" fill="white"/>
<path d="M43.1001 62.7002V79.6702L43.9301 80.1502V63.1602L43.1001 62.7002Z" fill="white"/>
<path d="M92.7101 20.1699L78.1701 11.8799L77.3501 12.3699L91.8801 20.6499L92.7101 20.1699Z" fill="white"/>
<path d="M63.3199 20.6396L61.6899 21.5996L76.0399 29.9496L77.6799 28.9896L63.3199 20.6396Z" fill="white"/>
<path d="M75.5599 83.08L77.6099 81.9L75.9199 80.96L74.6899 81.66V84.48L78.8399 86.75V84.86L75.5599 83.08Z" fill="white"/>
<path d="M80.5 87.6495L96.23 96.2295V94.3495L80.5 85.7695V87.6495Z" fill="white"/>
<path d="M96.2301 39.79L95.2401 39.21L93.6001 40.18L96.2301 41.71V39.79Z" fill="white"/>
<path d="M80.5 80.2496L96.23 71.2596V69.3496L80.5 78.3496V80.2496Z" fill="white"/>
<path d="M80.5 50.7096L96.23 59.6096V57.7096L80.5 48.8096V50.7096Z" fill="white"/>
<path d="M96.2299 112.2L74.6899 100.98V102.85L96.2299 114.07V112.2Z" fill="white"/>
<path d="M73.0398 79.3498L59.0898 71.5898V88.7898L73.0398 96.7498V79.3498Z" fill="white"/>
<path d="M59.0898 90.7002V107.08L73.0398 115.4V98.6502L59.0898 90.7002Z" fill="white"/>
<path d="M59.0898 38.5996V39.8996L60.2198 39.2396L59.0898 38.5996Z" fill="white"/>
<path d="M60.2198 39.2396L59.0898 38.5996L60.2198 39.2396Z" fill="white"/>
<path d="M61.8699 38.27L58.6699 36.46L61.8699 38.27Z" fill="white"/>
<path d="M58.2602 90.22L57.4302 89.75V106.09L58.2602 106.59V90.22Z" fill="white"/>
<path d="M58.2602 37.18L61.0402 38.75L61.8702 38.27L58.6702 36.46L57.4302 37.18V40.87L58.2602 40.38V37.18Z" fill="white"/>
<path d="M57.4302 70.6699V87.8499L58.2602 88.3199V71.1299L57.4302 70.6699Z" fill="white"/>
<path d="M74.6899 80.2796L73.8599 79.8096V82.1396L74.6899 81.6596V80.2796Z" fill="white"/>
<path d="M74.6899 102.85L73.8599 102.41V115.89L74.6899 116.38V102.85Z" fill="white"/>
<path d="M74.6899 100.98V99.6001L73.8599 99.1201V101.48L74.2499 100.75L74.6899 100.98Z" fill="white"/>
<path d="M73.8599 84.0303V97.2203L74.6899 97.6903V84.4803L73.8599 84.0303Z" fill="white"/>
<path d="M74.6899 81.6602L73.8599 82.1402V84.0302L74.6899 84.4802V81.6602Z" fill="white"/>
<path d="M74.2499 100.75L73.8599 101.48V102.41L74.6899 102.85V100.98L74.2499 100.75Z" fill="white"/>
<path d="M59.0898 38.5997L60.2198 39.2397L61.0398 38.7497L58.2598 37.1797V40.3797L59.0898 39.8997V38.5997Z" fill="white"/>
<path d="M59.0898 71.5899L58.2598 71.1299V88.3199L59.0898 88.7899V71.5899Z" fill="white"/>
<path d="M59.0898 90.6997L58.2598 90.2197V106.59L59.0898 107.08V90.6997Z" fill="white"/>
<path d="M73.48 102.22L73.86 101.48V99.1204L73.04 98.6504V115.4L73.86 115.89V102.41L73.48 102.22Z" fill="white"/>
<path d="M73.86 84.0296L73.47 83.8196L73.45 82.3696L73.86 82.1396V79.8096L73.04 79.3496V96.7496L73.86 97.2196V84.0296Z" fill="white"/>
<path d="M73.4502 82.3697L73.4702 83.8196L73.8602 84.0296V82.1396L73.4502 82.3697Z" fill="white"/>
<path d="M73.48 102.22L73.86 102.41V101.48L73.48 102.22Z" fill="white"/>
<path d="M78.5601 136.62V153.19L79.3801 152.7V136.12L78.5601 136.62Z" fill="white"/>
<path d="M80.2099 135.61L79.3799 136.12V152.7L80.2099 152.2V135.61Z" fill="white"/>
<path d="M97.8799 141.64L111.16 133.7V116.75L97.8799 124.84V141.64Z" fill="white"/>
<path d="M111.98 133.21L112.81 132.71V115.74L111.98 116.25V133.21Z" fill="white"/>
<path d="M96.23 125.85V142.63L97.06 142.13V125.34L96.23 125.85Z" fill="white"/>
<path d="M57.4302 60.5303L50.2402 64.7703L51.0702 65.2403L57.4302 61.4903V60.5303Z" fill="white"/>
<path d="M111.16 133.7L111.98 133.21V116.25L111.16 116.75V133.7Z" fill="white"/>
<path d="M57.4299 60.5303V59.5703L49.5699 64.2003L49.3999 64.3003L50.2399 64.7703L57.4299 60.5303Z" fill="white"/>
<path d="M97.0601 142.13L97.8801 141.64V124.84L97.0601 125.34V142.13Z" fill="white"/>
<path d="M154.05 54.2L112.81 30.68V9.82V9.32L95.07 0L77.34 10.45L59.41 0.23L59.01 0L58.6 0.23L42.7 9.1L42.28 9.32V9.82V31.12L0.41 55.8L0 56.04V175.21L15.73 184.53L33.86 174.84V93.96L42.27 98.98V173.96V174.41L42.65 174.66L57.81 184.27L58.22 184.54L58.66 184.29L78.54 172.96V175.24L97.08 184.51L97.47 184.28L112.4 175.44L112.81 175.2V174.73V153.44L154.05 129.94L154.47 129.72V129.22V109.26V108.78L154.05 108.54L125.01 91.9L154.05 75.61L154.47 75.4V74.89V54.92V54.45L154.05 54.2ZM16.57 81.73L15.32 81.04V82.44L14.93 182.14L1.65 174.28V57.94L42.27 81.11L43.1 81.58L43.93 82.05L57.43 89.75L58.26 90.22L59.09 90.69L73.04 98.65L73.87 99.12L74.7 99.59L79.27 102.2L80.51 102.84V101.48V87.65V85.77V80.26V78.35V50.71V48.81V47.9L93.61 40.18L95.24 39.22L96.23 38.63V39.79V41.7V57.7V59.6V69.35V71.26V94.35V96.23V112.2V114.07V123.92L80.21 133.68V119.68L74.69 116.39L73.86 115.9L73.03 115.41L59.08 107.09L58.25 106.6L57.42 106.11L43.92 98.06L43.09 97.57L42.26 97.08L16.57 81.73ZM42.28 33.04L43.11 32.55L43.94 32.06L61.69 21.6L63.32 20.64L77.35 12.37L78.17 11.89L79 11.4L95.12 1.9L110.28 9.86L93.53 19.69L92.71 20.17L91.89 20.65L77.68 28.99L76.04 29.95L61.87 38.27L61.05 38.75L60.22 39.23L59.09 39.89L58.26 40.38L57.43 40.87L43.93 48.79L43.1 49.28L42.27 49.77L32.61 55.44L31.45 56.18L32.63 56.87H32.64L32.74 56.93L42.27 62.24L43.1 62.7L43.93 63.16L57.43 70.67L58.26 71.13L59.09 71.59L73.04 79.35L73.87 79.81L74.7 80.27L75.93 80.96L77.62 81.9L78.85 82.58V84.86V86.74V100.05L74.7 97.68L73.87 97.21L73.04 96.74L59.09 88.78L58.26 88.31L57.43 87.84L43.93 80.14L43.1 79.67L42.27 79.2L2.48 56.5L42.28 33.04ZM59 1.9L75.7 11.42L61.69 19.68L44.78 9.84L59 1.9ZM43.93 11.26L60.05 20.64L43.93 30.14V11.26V11.26ZM78.84 79.29V80.69L77.6 80L74.69 78.38L73.86 77.92L73.03 77.46V52.29L73.86 51.8L74.69 51.31L78.06 49.32L78.84 48.86V49.76V79.29ZM112.81 51.36L120.19 55.66L112.81 59.88V51.36ZM50.24 64.77L49.4 64.3L49.57 64.2L57.44 59.56V60.52V61.48V68.77L51.08 65.23L50.24 64.77ZM112.81 105.28L120.19 109.31L112.81 113.81V105.28ZM112.81 61.78L122.26 56.38L123.49 55.71L122.27 54.95L112.82 49.45V32.59L152 54.94L112.81 78.36V61.78ZM74.69 118.31L78.55 120.61V134.68L74.69 137.03V118.31ZM43.93 99.97L57.43 108.02V182.07L43.93 173.51V99.97ZM80.21 172.02L96.23 162.89V182.23L80.21 174.22V172.02ZM112.81 132.71L111.98 133.2L111.15 133.69L97.88 141.62L97.05 142.11L96.22 142.6L80.2 152.18L79.37 152.67L78.54 153.16L74.68 155.47V138.94L78.54 136.59L79.37 136.09L80.2 135.59L96.22 125.83L97.05 125.33L97.88 124.83L111.15 116.74L111.98 116.24L112.81 115.74L122.28 109.97L123.43 109.22L122.25 108.54L112.82 103.39V87.24L122.94 92.61L152.02 109.28L112.81 132.71ZM152.82 74.4L123.32 90.95L112.81 85.37V80.29L152.81 56.39V74.4H152.82Z" fill="#26221D"/>
<path d="M74.69 78.3803V51.3203L73.04 52.2903V77.4603L74.69 78.3803Z" fill="black"/>
</svg>
