<svg width="375" height="158" viewBox="0 0 375 158" fill="none" xmlns="http://www.w3.org/2000/svg">
<path d="M99.6816 51.7916L115.164 43.7998V107.707L99.6816 99.7208V51.7916Z" fill="black"/>
<path d="M115.844 108.826L99.0029 100.134V51.3733L115.844 42.6807V108.826ZM100.367 99.3079L114.486 106.593V44.919L100.367 52.2046V99.3079Z" fill="black"/>
<path d="M146.12 107.707L130.642 115.699L115.165 107.707L130.642 99.7208V51.7916L146.12 43.7998V107.707Z" fill="black"/>
<path d="M130.643 116.465L113.677 107.713L129.958 99.3079V51.3733L146.799 42.6807V108.12L130.643 116.465ZM116.648 107.707L130.643 114.928L145.441 107.289V44.919L131.322 52.2046V100.134L116.648 107.707Z" fill="black"/>
<path d="M197.985 17.771H173.821V1.11914L158.344 9.10552V17.771H151.102L144.643 33.2548H158.344V110.451L173.821 118.437V33.2548H191.515L197.985 17.771Z" fill="black"/>
<path d="M174.505 119.557L157.664 110.864V33.934H143.621L150.645 17.0919H157.664V8.69266L174.505 0V17.0919H199.012L191.971 33.934H174.505V119.557V119.557ZM159.022 110.033L173.142 117.318V32.5703H191.064L196.964 18.4502H173.142V2.23836L159.022 9.5239V18.4556H151.553L145.664 32.5757H159.022V110.033Z" fill="black"/>
<path d="M218.525 68.2217V116.151L234.003 124.143V60.2354L218.525 68.2217Z" fill="black"/>
<path d="M234.682 125.256L217.841 116.563V67.803L234.682 59.1104V125.256ZM219.204 115.738L233.324 123.023V61.3487L219.204 68.6342V115.738Z" fill="black"/>
<path d="M249.48 52.2432L234.003 60.235L249.48 68.2214V116.151L234.003 124.142L249.48 132.129L264.958 124.142V60.235L249.48 52.2432Z" fill="black"/>
<path d="M249.481 132.895L232.515 124.142L248.796 115.737V68.6396L232.515 60.2348L249.481 51.4824L265.643 59.8219V124.561L249.481 132.895ZM235.486 124.142L249.481 131.363L264.279 123.724V60.6477L249.481 53.0091L235.486 60.2294L250.16 67.8029V116.563L235.486 124.142Z" fill="black"/>
<path d="M232.242 42.8819H208.078V26.2246L192.601 34.2164V42.8819H185.354L178.895 58.3603H192.601V135.557L208.078 143.548V58.3603H225.772L232.242 42.8819Z" fill="black"/>
<path d="M208.757 144.662L191.916 135.969V59.0394H177.873L184.897 42.1974H191.916V33.7981L208.757 25.1055V42.1974H233.264L226.223 59.0394H208.757V144.662V144.662ZM193.28 135.144L207.399 142.429V57.6812H225.321L231.221 43.5611H207.399V27.3438L193.28 34.6294V43.5611H185.81L179.921 57.6812H193.28V135.144Z" fill="black"/>
<path d="M273.605 61.376V109.305L289.088 117.297V53.3896L273.605 61.376Z" fill="black"/>
<path d="M289.768 118.41L272.927 109.718V60.9573L289.768 52.2646V118.41ZM274.29 108.892L288.41 116.177V54.503L274.29 61.7885V108.892Z" fill="black"/>
<path d="M289.089 53.3893L304.566 61.3757L320.044 53.3893L304.566 45.3975L289.089 53.3893Z" fill="black"/>
<path d="M304.567 62.1416L287.601 53.3891L304.567 44.6367L321.532 53.3891L304.567 62.1416ZM290.572 53.3891L304.567 60.6095L318.561 53.3891L304.567 46.1688L290.572 53.3891Z" fill="black"/>
<path d="M304.566 61.376V109.305L320.044 117.297V53.3896L304.566 61.376Z" fill="black"/>
<path d="M320.729 118.41L303.888 109.718V60.9573L320.729 52.2646V118.41ZM305.246 108.892L319.365 116.177V54.503L305.246 61.7885V108.892Z" fill="black"/>
<path d="M358.838 53.3896V117.297V149.248L374.321 141.262V125.283V109.305V61.376L358.838 53.3896Z" fill="black"/>
<path d="M358.159 150.367V52.2705L375 60.9632V141.68L358.159 150.367ZM359.523 54.5034V148.129L373.642 140.843V61.789L359.523 54.5034Z" fill="black"/>
<path d="M343.36 61.376L327.883 53.3896V117.297L343.36 125.283L358.838 117.297L343.36 109.305V61.376Z" fill="black"/>
<path d="M343.36 126.049L327.198 117.71V52.2705L344.039 60.9632V108.892L360.321 117.297L343.36 126.049ZM328.562 116.879L343.36 124.517L357.355 117.297L342.681 109.724V61.7944L328.562 54.5089V116.879Z" fill="black"/>
<path d="M327.883 149.248L343.36 157.234L358.838 149.248L343.36 141.262L327.883 149.248Z" fill="black"/>
<path d="M343.36 158.001L326.395 149.249L343.36 140.496L360.326 149.249L343.36 158.001ZM329.366 149.249L343.36 156.469L357.355 149.249L343.36 142.028L329.366 149.249Z" fill="black"/>
<path d="M0.678711 55.7848V103.714L16.1616 111.7V47.793L0.678711 55.7848Z" fill="black"/>
<path d="M16.841 112.82L0 104.127V55.3665L16.841 46.6738V112.82ZM1.36358 103.301L15.4828 110.587V48.9122L1.36358 56.1977V103.301Z" fill="black"/>
<path d="M47.1169 47.793L31.6395 39.8066L16.1621 47.793L31.6395 55.7848L47.1169 47.793Z" fill="black"/>
<path d="M31.6398 56.5513L14.6738 47.7934L31.6398 39.041L48.6057 47.7934L31.6398 56.5513ZM17.6454 47.7934L31.6398 55.0138L45.6341 47.7934L31.6398 40.5731L17.6454 47.7934Z" fill="black"/>
<path d="M39.3809 67.7646L23.8981 75.7565L39.3809 83.7428V99.5635L16.1621 111.701L31.6395 119.692L54.8584 107.55V75.7565L39.3809 67.7646Z" fill="black"/>
<path d="M31.6392 120.458L14.6787 111.706L38.6961 99.1505V84.161L22.4147 75.7563L39.3806 67.0039L55.5426 75.3434V107.963L31.6392 120.458ZM17.6395 111.7L31.6392 118.926L54.179 107.137V76.1692L39.3806 68.5306L25.3863 75.7509L40.0597 83.3244V99.9708L17.6395 111.7Z" fill="black"/>
<path d="M62.8112 39.8077L62.7949 103.715L78.2723 111.701L78.2886 31.8213L62.8112 39.8077Z" fill="black"/>
<path d="M78.9513 112.82L62.1104 104.128L62.1266 39.389L78.9676 30.6963L78.9513 112.82ZM63.4739 103.302L77.5932 110.587L77.6095 32.9401L63.4902 40.2256L63.4739 103.302Z" fill="black"/>
<path d="M93.7719 103.715L78.2891 111.701L93.7719 119.693L109.249 111.701L93.7719 103.715Z" fill="black"/>
<path d="M93.7716 120.459L76.8057 111.707L93.7716 102.954L110.738 111.707L93.7716 120.459ZM79.7773 111.701L93.7716 118.921L107.766 111.701L93.7716 104.481L79.7773 111.701Z" fill="black"/>
</svg>
