<svg width="334" height="92" viewBox="0 0 334 92" fill="none" xmlns="http://www.w3.org/2000/svg">
<path d="M87.3916 20.4605V45.4696C87.3916 55.3805 81.9611 60.3823 73.9533 60.3823C66.6818 60.3823 62.4478 56.1216 62.4478 47.1368V20.4605H50.9424V48.7115C50.9424 63.6243 59.5024 70.5712 72.1124 70.5712C78.4634 70.5712 84.2622 68.1629 87.9439 63.6243V69.9228H98.8971V20.4605H87.3916Z" fill="black"/>
<path d="M122.358 27.6854V20.4605H111.405V69.9228H122.91V45.9327C122.91 35.8365 128.433 30.6494 137.177 30.6494C138.005 30.6494 138.834 30.742 139.846 30.9273V19.9048C131.654 19.9048 125.671 22.4983 122.358 27.6854Z" fill="black"/>
<path d="M174.294 19.9048C167.575 19.9048 161.868 22.2204 158.003 26.9444V20.4605H147.049V87.8923H158.555V63.9021C162.513 68.4408 168.035 70.5712 174.294 70.5712C188.653 70.5712 199.238 60.5676 199.238 45.1917C199.238 29.9084 188.653 19.9048 174.294 19.9048ZM173.006 60.6602C164.722 60.6602 158.371 54.6395 158.371 45.1917C158.371 35.7438 164.722 29.7231 173.006 29.7231C181.29 29.7231 187.549 35.7438 187.549 45.1917C187.549 54.6395 181.29 60.6602 173.006 60.6602Z" fill="black"/>
<path d="M207.593 69.9228H219.098V1.19434H207.593V69.9228Z" fill="black"/>
<path d="M250.419 19.9048C242.504 19.9048 234.864 21.9426 229.617 26.0181L234.128 34.4471C237.809 31.3904 243.516 29.5379 249.039 29.5379C257.231 29.5379 261.28 33.5208 261.28 40.2825V41.0235H248.578C233.667 41.0235 228.145 47.5073 228.145 55.751C228.145 64.3653 235.232 70.5712 246.461 70.5712C253.825 70.5712 259.163 68.1629 261.925 63.9021V69.9228H272.786V40.9309C272.786 26.6665 264.594 19.9048 250.419 19.9048ZM248.855 62.1422C242.964 62.1422 239.466 59.4561 239.466 55.2879C239.466 51.6755 241.583 48.7115 249.407 48.7115H261.28V54.4543C259.348 59.5487 254.469 62.1422 248.855 62.1422Z" fill="black"/>
<path d="M312.884 19.9048C305.705 19.9048 299.722 22.3131 295.948 26.8517V20.4605H284.995V69.9228H296.5V44.9138C296.5 35.0028 302.023 30.001 310.215 30.001C317.578 30.001 321.904 34.2618 321.904 43.0613V69.9228H333.41V41.5793C333.41 26.6665 324.666 19.9048 312.884 19.9048Z" fill="black"/>
<path d="M27.796 0.708008L27.9461 55.0807L11.0272 39.5531L0 44.3205L27.6033 69.4247L27.61 71.536C27.5178 76.9119 26.0825 79.6467 22.3502 81.2603C19.4662 82.5071 16.0687 82.5664 13.1894 81.4956L12.3221 91.1331C16.3429 92.5158 21.7532 91.989 26.249 90.0454C33.7984 86.7815 38.2096 81.1493 37.9286 69.0886L37.9748 0.708366L27.796 0.708008Z" fill="black"/>
</svg>
