<svg width="837" height="251" viewBox="0 0 837 251" fill="none" xmlns="http://www.w3.org/2000/svg">
<path d="M125.519 0C56.1981 0 0 56.1879 0 125.498C0 194.815 56.1981 251 125.519 251C194.842 251 251.037 194.815 251.037 125.498C251.037 56.1923 194.845 0.0059899 125.517 0.0059899L125.519 0V0ZM183.081 181.004C180.826 184.701 176.009 185.859 172.323 183.607C142.848 165.595 105.749 161.526 62.057 171.505C57.8468 172.471 53.65 169.831 52.6908 165.623C51.727 161.414 54.3544 157.218 58.5752 156.258C106.389 145.329 147.402 150.033 180.486 170.247C184.173 172.51 185.342 177.32 183.079 181.007L183.081 181.004V181.004ZM198.444 146.837C195.605 151.442 189.583 152.887 184.983 150.059C151.251 129.327 99.8147 123.322 59.9077 135.434C54.7321 136.997 49.2658 134.08 47.695 128.915C46.1362 123.74 49.0545 118.285 54.2211 116.711C99.8058 102.882 156.474 109.581 195.22 133.387C199.821 136.219 201.275 142.243 198.442 146.838L198.444 146.837ZM199.763 111.253C159.303 87.2289 92.5647 85.0199 53.9406 96.7406C47.7385 98.6213 41.1795 95.1205 39.2999 88.9192C37.4203 82.715 40.9187 76.1615 47.1254 74.2762C91.4631 60.8186 165.169 63.4187 211.745 91.0638C217.323 94.3742 219.154 101.578 215.847 107.149C212.55 112.726 205.325 114.565 199.764 111.253H199.763V111.253ZM341.495 115.857C319.823 110.69 315.965 107.063 315.965 99.4426C315.965 92.2433 322.744 87.3982 332.825 87.3982C342.598 87.3982 352.288 91.0773 362.447 98.6514C362.754 98.8807 363.14 98.972 363.519 98.9121C363.898 98.8552 364.234 98.6469 364.456 98.3337L375.038 83.4193C375.472 82.8049 375.354 81.9582 374.768 81.4891C362.677 71.7885 349.061 67.0723 333.146 67.0723C309.746 67.0723 293.401 81.1129 293.401 101.202C293.401 122.745 307.501 130.373 331.866 136.261C352.604 141.037 356.104 145.038 356.104 152.191C356.104 160.117 349.027 165.045 337.637 165.045C324.986 165.045 314.668 160.784 303.126 150.79C302.839 150.543 302.447 150.43 302.084 150.451C301.702 150.483 301.352 150.66 301.11 150.952L289.245 165.07C288.747 165.656 288.81 166.532 289.386 167.038C302.815 179.026 319.333 185.357 337.157 185.357C362.372 185.357 378.666 171.582 378.666 150.261C378.711 132.263 367.935 122.297 341.54 115.877L341.495 115.857V115.857ZM435.713 94.4867C424.783 94.4867 415.818 98.7907 408.426 107.61V97.6832C408.426 96.8994 407.791 96.261 407.008 96.261H387.603C386.819 96.261 386.185 96.8994 386.185 97.6832V207.985C386.185 208.769 386.819 209.407 387.603 209.407H407.008C407.791 209.407 408.426 208.769 408.426 207.985V173.167C415.82 181.464 424.786 185.518 435.713 185.518C456.021 185.518 476.579 169.887 476.579 140.007C476.609 110.12 456.045 94.4852 435.735 94.4852L435.713 94.4867ZM454.014 140.007C454.014 155.223 444.64 165.841 431.218 165.841C417.948 165.841 407.939 154.74 407.939 140.007C407.939 125.276 417.948 114.174 431.218 114.174C444.423 114.173 454.015 125.035 454.015 140.006L454.014 140.007V140.007ZM529.271 94.4867C503.118 94.4867 482.628 114.622 482.628 140.333C482.628 165.763 502.977 185.687 528.951 185.687C555.197 185.687 575.749 165.619 575.749 140.007C575.749 114.484 555.335 94.4896 529.27 94.4896L529.271 94.4867V94.4867ZM529.271 165.992C515.36 165.992 504.873 154.817 504.873 140C504.873 125.12 514.998 114.322 528.951 114.322C542.951 114.322 553.509 125.498 553.509 140.325C553.509 155.202 543.317 165.992 529.273 165.992H529.271V165.992ZM631.598 96.2611H610.244V74.4321C610.244 73.6498 609.611 73.0114 608.828 73.0114H589.425C588.64 73.0114 588.003 73.6498 588.003 74.4321V96.2611H578.672C577.891 96.2611 577.259 96.8994 577.259 97.6833V114.358C577.259 115.141 577.891 115.781 578.672 115.781H588.003V158.927C588.003 176.364 596.682 185.204 613.801 185.204C620.762 185.204 626.537 183.767 631.979 180.682C632.421 180.434 632.695 179.958 632.695 179.451V163.572C632.695 163.082 632.44 162.619 632.021 162.362C631.598 162.097 631.072 162.084 630.639 162.298C626.901 164.179 623.287 165.046 619.248 165.046C613.021 165.046 610.244 162.22 610.244 155.885V115.788H631.598C632.382 115.788 633.013 115.15 633.013 114.366V97.6924C633.043 96.9086 632.414 96.2702 631.619 96.2702L631.598 96.2611V96.2611ZM706.002 96.3465V93.6654C706.002 85.7781 709.026 82.2609 715.81 82.2609C719.855 82.2609 723.105 83.0641 726.744 84.278C727.192 84.419 727.66 84.3485 728.024 84.0802C728.399 83.8119 728.61 83.3818 728.61 82.9262V66.5763C728.61 65.9513 728.209 65.3983 727.606 65.214C723.761 64.0705 718.842 62.8971 711.477 62.8971C693.554 62.8971 684.079 72.9888 684.079 92.0708V96.177H674.756C673.974 96.177 673.332 96.8154 673.332 97.5977V114.358C673.332 115.141 673.974 115.781 674.756 115.781H684.079V182.333C684.079 183.117 684.712 183.755 685.494 183.755H704.9C705.684 183.755 706.322 183.117 706.322 182.333V115.785H724.44L752.195 182.321C749.044 189.312 745.946 190.703 741.716 190.703C738.297 190.703 734.697 189.682 731.016 187.668C730.67 187.478 730.259 187.446 729.886 187.562C729.516 187.692 729.204 187.968 729.046 188.327L722.469 202.755C722.156 203.437 722.424 204.237 723.081 204.591C729.947 208.309 736.145 209.896 743.806 209.896C758.135 209.896 766.055 203.222 773.036 185.269L806.702 98.2886C806.872 97.851 806.821 97.3565 806.552 96.9684C806.286 96.5832 805.855 96.351 805.385 96.351H785.183C784.578 96.351 784.036 96.736 783.839 97.3041L763.144 156.407L740.477 97.2651C740.27 96.7151 739.739 96.3509 739.152 96.3509H705.997L706.002 96.3465V96.3465ZM662.864 96.2611H643.459C642.675 96.2611 642.036 96.8994 642.036 97.6833V182.333C642.036 183.117 642.675 183.755 643.459 183.755H662.864C663.647 183.755 664.287 183.117 664.287 182.333V97.6892C664.287 97.5022 664.251 97.3169 664.179 97.1441C664.108 96.9712 664.003 96.8142 663.87 96.6821C663.738 96.5499 663.581 96.4452 663.408 96.374C663.235 96.3027 663.05 96.2664 662.863 96.267L662.864 96.2611ZM653.272 57.718C645.584 57.718 639.346 63.9402 639.346 71.6267C639.346 79.3176 645.586 85.5475 653.272 85.5475C660.956 85.5475 667.189 79.3176 667.189 71.6267C667.189 63.9417 660.953 57.718 653.279 57.718H653.272V57.718ZM823.272 123.478C815.592 123.478 809.616 117.311 809.616 109.822C809.616 102.333 815.67 96.0962 823.344 96.0962C831.024 96.0962 837 102.262 837 109.744C837 117.233 830.945 123.478 823.271 123.478H823.272V123.478ZM823.347 97.4539C816.352 97.4539 811.059 103.014 811.059 109.822C811.059 116.627 816.314 122.112 823.276 122.112C830.27 122.112 835.569 116.557 835.569 109.744C835.569 102.939 830.308 97.4539 823.353 97.4539H823.347V97.4539ZM826.375 111.148L830.237 116.555H826.98L823.503 111.595H820.513V116.555H817.786V102.223H824.179C827.509 102.223 829.699 103.926 829.699 106.795C829.714 109.145 828.35 110.58 826.387 111.148H826.375V111.148ZM824.067 104.682H820.511V109.215H824.067C825.841 109.215 826.901 108.348 826.901 106.946C826.901 105.472 825.837 104.682 824.068 104.682H824.067V104.682Z" fill="black"/>
</svg>
