<svg width="355" height="158" viewBox="0 0 355 158" fill="none" xmlns="http://www.w3.org/2000/svg">
<path d="M158.261 62.0795C160.451 67.1795 161.671 72.7695 161.711 78.6495C161.841 102.28 142.741 121.62 119.111 121.76C115.551 121.77 112.681 118.88 112.641 115.36C112.621 111.81 115.481 108.91 119.041 108.89C135.581 108.8 148.941 95.2495 148.851 78.7195C148.761 62.1995 135.231 48.8195 118.691 48.9195C115.121 48.9295 112.251 46.0495 112.221 42.5195C112.201 38.9695 115.061 36.0695 118.621 36.0495C136.351 35.9495 151.671 46.7095 158.261 62.0795Z" fill="black"/>
<path d="M171.131 39.9598C170.801 40.7298 170.621 41.5698 170.611 42.4598C170.591 46.0098 173.451 48.9098 177.011 48.9298C203.481 49.0798 224.891 70.7498 224.731 97.2298C224.661 110.06 219.591 122.09 210.471 131.09C201.351 140.11 189.251 145.03 176.431 144.95C172.881 144.94 169.991 147.8 169.961 151.35C169.941 154.9 172.801 157.79 176.361 157.82C192.621 157.92 207.951 151.67 219.511 140.25C231.081 128.81 237.501 113.59 237.601 97.2998C237.801 63.7298 210.651 36.2498 177.091 36.0498C174.401 36.0498 172.121 37.6498 171.131 39.9598Z" fill="black"/>
<path d="M324.661 40.0506C324.991 40.8206 325.171 41.6606 325.181 42.5506L325.821 151.441C325.841 154.991 322.981 157.881 319.421 157.911C315.851 157.941 312.991 155.061 312.951 151.511L312.311 42.6206C312.291 39.0706 315.151 36.1706 318.711 36.1506C321.391 36.1306 323.671 37.7406 324.661 40.0506Z" fill="black"/>
<path d="M353.601 148.77C353.931 149.54 354.111 150.38 354.121 151.27C354.141 154.82 351.281 157.71 347.721 157.74L319.421 157.91C315.871 157.93 312.991 155.06 312.951 151.51C312.931 147.96 315.791 145.07 319.351 145.04L347.651 144.87C350.311 144.85 352.621 146.46 353.601 148.77Z" fill="black"/>
<path d="M352.961 39.8697C353.291 40.6397 353.471 41.4797 353.481 42.3697C353.501 45.9197 350.641 48.8197 347.081 48.8397L318.781 49.0097C315.231 49.0097 312.351 46.1297 312.311 42.6097C312.291 39.0597 315.151 36.1597 318.711 36.1397L347.011 35.9697C349.671 35.9697 351.971 37.5697 352.961 39.8697Z" fill="black"/>
<path d="M348.501 94.3494C348.831 95.1194 349.011 95.9594 349.021 96.8494C349.041 100.399 346.181 103.289 342.621 103.319L319.111 103.459C315.541 103.489 312.671 100.589 312.641 97.0594C312.621 93.4994 315.481 90.6094 319.041 90.5894L342.551 90.4494C345.221 90.4294 347.511 92.0494 348.501 94.3494Z" fill="black"/>
<path d="M66.4611 3.90981C66.7911 4.67981 66.9711 5.51981 66.9811 6.40981C67.0011 9.95981 64.1411 12.8598 60.5811 12.8798C34.1111 13.0298 12.7011 34.6998 12.8611 61.1798C12.9311 74.0098 18.0011 86.0398 27.1211 95.0398C36.2411 104.06 48.3411 108.98 61.1611 108.9C64.7111 108.89 67.6011 111.75 67.6311 115.3C67.6511 118.85 64.7911 121.74 61.2311 121.77C44.9711 121.87 29.6411 115.62 18.0811 104.2C6.5311 92.7598 0.111098 77.5398 0.00109792 61.2598C-0.198902 27.6798 26.9511 0.209812 60.5111 0.00981224C63.1911 -0.000187764 65.4711 1.59981 66.4611 3.90981Z" fill="black"/>
<path d="M87.7411 19.93C87.6811 19.78 87.6411 19.61 87.6411 19.44L87.8011 1.25004C87.8111 0.580039 88.3611 0.0400391 89.0311 0.0400391C89.7011 0.0500391 90.2411 0.600039 90.2411 1.27004L90.0811 19.46C90.0711 20.13 89.5211 20.67 88.8511 20.67C88.3511 20.67 87.9211 20.36 87.7411 19.93Z" fill="black"/>
<path d="M87.9013 1.74004C87.8413 1.59004 87.8013 1.42004 87.8013 1.25004C87.8113 0.580039 88.3613 0.0400391 89.0313 0.0400391L93.7613 0.0800391C94.4313 0.0900391 94.9713 0.630039 94.9713 1.31004C94.9613 1.98004 94.4113 2.52004 93.7413 2.52004L89.0113 2.48004C88.5113 2.48004 88.0813 2.17004 87.9013 1.74004Z" fill="black"/>
<path d="M83.0111 1.7C82.9511 1.55 82.9111 1.38 82.9111 1.21C82.9211 0.54 83.4711 0 84.1411 0L88.8711 0.04C89.5411 0.05 90.0811 0.6 90.0811 1.27C90.0711 1.94 89.5211 2.48 88.8511 2.48L84.1211 2.44C83.6211 2.43 83.1911 2.13 83.0111 1.7Z" fill="black"/>
<path d="M95.9613 20.0004C95.9013 19.8504 95.8613 19.6804 95.8613 19.5104L96.0213 1.32035C96.0313 0.650352 96.5813 0.110352 97.2513 0.110352C97.9213 0.120352 98.4613 0.670352 98.4613 1.34035L98.3013 19.5404C98.2913 20.2104 97.7413 20.7504 97.0713 20.7504C96.5713 20.7404 96.1513 20.4404 95.9613 20.0004Z" fill="black"/>
<path d="M96.0409 10.91C95.9809 10.76 95.9409 10.59 95.9409 10.42C95.9509 9.74996 96.5009 9.20996 97.1709 9.20996L106.791 9.28996C107.461 9.29996 108.001 9.84996 108.001 10.52C107.991 11.19 107.441 11.73 106.771 11.73L97.1509 11.65C96.6509 11.64 96.2209 11.34 96.0409 10.91Z" fill="black"/>
<path d="M105.581 20.0902C105.521 19.9402 105.481 19.7702 105.481 19.6002L105.641 1.4102C105.651 0.740195 106.201 0.200195 106.871 0.200195C107.541 0.210195 108.081 0.750195 108.081 1.4302L107.921 19.6202C107.911 20.2902 107.361 20.8302 106.691 20.8302C106.191 20.8202 105.771 20.5202 105.581 20.0902Z" fill="black"/>
<path d="M111.381 19.8998C111.321 19.7498 111.281 19.5798 111.281 19.4098L111.441 1.21977C111.451 0.549766 112.001 0.00976562 112.671 0.00976562C113.341 0.0197656 113.881 0.569766 113.881 1.23977L113.721 19.4298C113.711 20.0998 113.161 20.6398 112.491 20.6398C111.991 20.6398 111.561 20.3298 111.381 19.8998Z" fill="black"/>
<path d="M111.381 19.9002C111.321 19.7502 111.281 19.5802 111.281 19.4102C111.291 18.7402 111.841 18.2002 112.511 18.2002L117.241 18.2402C117.911 18.2502 118.451 18.8002 118.451 19.4702C118.441 20.1402 117.891 20.6802 117.221 20.6802L112.491 20.6402C111.991 20.6402 111.561 20.3302 111.381 19.9002Z" fill="black"/>
<path d="M111.541 1.70977C111.481 1.55977 111.441 1.38977 111.441 1.21977C111.451 0.549766 112.001 0.00976562 112.671 0.00976562L117.401 0.0497656C118.071 0.0597656 118.611 0.599766 118.611 1.27977C118.601 1.94977 118.051 2.48977 117.381 2.48977L112.651 2.44977C112.151 2.43977 111.721 2.13977 111.541 1.70977Z" fill="black"/>
<path d="M111.461 10.8104C111.401 10.6604 111.361 10.4904 111.361 10.3204C111.371 9.65035 111.921 9.11035 112.591 9.11035L116.521 9.14035C117.191 9.15035 117.741 9.69035 117.731 10.3704C117.721 11.0504 117.171 11.5804 116.501 11.5804L112.571 11.5504C112.071 11.5404 111.641 11.2404 111.461 10.8104Z" fill="black"/>
<path d="M95.2407 39.9606C95.5707 40.7306 95.7507 41.5706 95.7607 42.4606L96.4107 151.361C96.4307 154.911 93.5707 157.811 90.0107 157.831C86.4507 157.841 83.5907 154.971 83.5407 151.431L82.8907 42.5306C82.8707 38.9806 85.7307 36.0806 89.2907 36.0606C91.9507 36.0506 94.2507 37.6506 95.2407 39.9606Z" fill="black"/>
<path d="M124.381 39.9606C124.711 40.7306 124.891 41.5706 124.901 42.4606L125.551 151.361C125.571 154.911 122.711 157.811 119.151 157.831C115.591 157.841 112.731 154.971 112.681 151.431L112.031 42.5306C112.011 38.9806 114.871 36.0806 118.431 36.0606C121.101 36.0506 123.391 37.6506 124.381 39.9606Z" fill="black"/>
<path d="M154.181 148.85C155.561 152.07 154.121 155.8 150.921 157.24C147.691 158.7 143.871 157.27 142.411 154.03L125.741 117.05C124.211 113.69 125.721 110.01 128.951 108.54C132.191 107.08 136.001 108.51 137.461 111.75L154.131 148.73C154.141 148.77 154.161 148.82 154.181 148.85Z" fill="black"/>
<path d="M265.851 39.9606C266.181 40.7306 266.361 41.5706 266.371 42.4606L267.021 151.361C267.041 154.911 264.181 157.801 260.621 157.831C257.061 157.861 254.191 154.971 254.151 151.431L253.501 42.5306C253.481 38.9806 256.341 36.0806 259.901 36.0606C262.581 36.0506 264.861 37.6506 265.851 39.9606Z" fill="black"/>
<path d="M294.791 148.68C295.121 149.45 295.301 150.29 295.311 151.18C295.331 154.73 292.471 157.62 288.911 157.65L260.611 157.82C257.071 157.84 254.181 154.96 254.141 151.42C254.121 147.87 256.981 144.98 260.541 144.95L288.841 144.78C291.511 144.77 293.811 146.38 294.791 148.68Z" fill="black"/>
</svg>
